<svg width="640" height="512" xmlns="http://www.w3.org/2000/svg" xmlns:xlink="http://www.w3.org/1999/xlink" xml:space="preserve" overflow="hidden"><g transform="translate(3162 -562)"><path d="M-2970 626C-3076 626-3162 712-3162 818-3162 924-3076 1010-2970 1010L-2714 1010C-2608 1010-2522 924-2522 818-2522 712-2608 626-2714 626L-2970 626ZM-2666 730C-2643.91 730-2626 747.909-2626 770-2626 792.091-2643.91 810-2666 810-2688.09 810-2706 792.091-2706 770-2706 747.909-2688.09 730-2666 730ZM-2770 866C-2770 843.909-2752.09 826-2730 826-2707.91 826-2690 843.909-2690 866-2690 888.091-2707.91 906-2730 906-2752.09 906-2770 888.091-2770 866ZM-2994 762C-2994 748.7-2983.3 738-2970 738-2956.7 738-2946 748.7-2946 762L-2946 794-2914 794C-2900.7 794-2890 804.7-2890 818-2890 831.3-2900.7 842-2914 842L-2946 842-2946 874C-2946 887.3-2956.7 898-2970 898-2983.3 898-2994 887.3-2994 874L-2994 842-3026 842C-3039.3 842-3050 831.3-3050 818-3050 804.7-3039.3 794-3026 794L-2994 794-2994 762Z"/></g></svg>