<svg width="512" height="512" xmlns="http://www.w3.org/2000/svg" xmlns:xlink="http://www.w3.org/1999/xlink" xml:space="preserve" overflow="hidden"><g transform="translate(1703 -1131)"><path d="M-1703 1227C-1703 1191.7-1674.3 1163-1639 1163L-1255 1163C-1219.7 1163-1191 1191.7-1191 1227L-1191 1547C-1191 1582.3-1219.7 1611-1255 1611L-1639 1611C-1674.3 1611-1703 1582.3-1703 1547L-1703 1227ZM-1655 1499-1655 1531C-1655 1539.8-1647.8 1547-1639 1547L-1607 1547C-1598.2 1547-1591 1539.8-1591 1531L-1591 1499C-1591 1490.2-1598.2 1483-1607 1483L-1639 1483C-1647.8 1483-1655 1490.2-1655 1499ZM-1287 1483C-1295.8 1483-1303 1490.2-1303 1499L-1303 1531C-1303 1539.8-1295.8 1547-1287 1547L-1255 1547C-1246.2 1547-1239 1539.8-1239 1531L-1239 1499C-1239 1490.2-1246.2 1483-1255 1483L-1287 1483ZM-1655 1371-1655 1403C-1655 1411.8-1647.8 1419-1639 1419L-1607 1419C-1598.2 1419-1591 1411.8-1591 1403L-1591 1371C-1591 1362.2-1598.2 1355-1607 1355L-1639 1355C-1647.8 1355-1655 1362.2-1655 1371ZM-1287 1355C-1295.8 1355-1303 1362.2-1303 1371L-1303 1403C-1303 1411.8-1295.8 1419-1287 1419L-1255 1419C-1246.2 1419-1239 1411.8-1239 1403L-1239 1371C-1239 1362.2-1246.2 1355-1255 1355L-1287 1355ZM-1655 1243-1655 1275C-1655 1283.8-1647.8 1291-1639 1291L-1607 1291C-1598.2 1291-1591 1283.8-1591 1275L-1591 1243C-1591 1234.2-1598.2 1227-1607 1227L-1639 1227C-1647.8 1227-1655 1234.2-1655 1243ZM-1287 1227C-1295.8 1227-1303 1234.2-1303 1243L-1303 1275C-1303 1283.8-1295.8 1291-1287 1291L-1255 1291C-1246.2 1291-1239 1283.8-1239 1275L-1239 1243C-1239 1234.2-1246.2 1227-1255 1227L-1287 1227ZM-1543 1259-1543 1323C-1543 1340.7-1528.7 1355-1511 1355L-1383 1355C-1365.3 1355-1351 1340.7-1351 1323L-1351 1259C-1351 1241.3-1365.3 1227-1383 1227L-1511 1227C-1528.7 1227-1543 1241.3-1543 1259ZM-1511 1419C-1528.7 1419-1543 1433.3-1543 1451L-1543 1515C-1543 1532.7-1528.7 1547-1511 1547L-1383 1547C-1365.3 1547-1351 1532.7-1351 1515L-1351 1451C-1351 1433.3-1365.3 1419-1383 1419L-1511 1419Z"/></g></svg>